<svg width="859" height="571" viewBox="0 0 859 571" fill="none" xmlns="http://www.w3.org/2000/svg">
<g clip-path="url(#clip0_82_190)">
<path d="M307.96 328.616C337.383 276.819 393.506 237.047 452.918 240.878C409.094 288.571 383.54 350.24 380.776 414.974C379.8 439.943 381.313 467.817 364.747 486.513C354.439 498.147 338.684 503.781 323.193 504.963C307.702 506.144 292.214 503.343 276.929 500.554L273.221 501.693C271.81 442.129 278.538 380.413 307.96 328.616Z" fill="#F0F0F0"/>
<path d="M453.007 242.125C409.072 263.292 371.611 298.642 348.614 341.753C343.642 351.074 339.409 360.962 337.562 371.417C335.715 381.877 337.005 391.833 340.575 401.768C343.839 410.85 348.228 419.762 349.229 429.479C350.283 439.723 346.517 449.3 339.738 456.901C331.444 466.201 320.305 471.965 309.217 477.221C296.905 483.058 284.025 488.926 275.305 499.819C274.248 501.139 272.264 499.422 273.319 498.104C288.49 479.15 314.46 475.588 332.469 460.32C340.872 453.196 347.181 443.494 346.782 432.126C346.434 422.186 341.916 412.992 338.532 403.825C334.979 394.199 333.207 384.521 334.481 374.258C335.785 363.76 339.64 353.686 344.352 344.279C354.979 323.064 369.522 303.587 386.181 286.75C405.328 267.397 427.642 251.464 452.157 239.641C453.675 238.909 454.515 241.399 453.007 242.125V242.125Z" fill="#6C5CE7"/>
<path d="M355.35 327.345C348.615 322.417 343.849 315.253 341.905 307.133C339.96 299.012 340.964 290.465 344.735 283.016C345.503 281.512 347.875 282.636 347.106 284.143C343.581 291.072 342.648 299.034 344.474 306.592C346.3 314.15 350.765 320.805 357.064 325.358C358.432 326.348 356.71 328.331 355.35 327.345V327.345Z" fill="#6C5CE7"/>
<path d="M338.314 397.381C355.191 394.913 370.519 386.17 381.24 372.895C382.302 371.579 384.287 373.296 383.227 374.611C372.044 388.404 356.075 397.47 338.506 400C336.832 400.24 336.649 397.62 338.314 397.381V397.381Z" fill="#6C5CE7"/>
<path d="M406.624 270.628C408.833 273.078 411.616 274.941 414.722 276.05C417.828 277.158 421.161 277.477 424.42 276.977C426.091 276.716 426.273 279.337 424.613 279.596C421.009 280.131 417.328 279.774 413.894 278.558C410.459 277.341 407.375 275.301 404.91 272.616C404.656 272.382 404.501 272.061 404.476 271.717C404.45 271.373 404.557 271.032 404.774 270.764C405.002 270.502 405.325 270.34 405.671 270.315C406.018 270.29 406.36 270.402 406.624 270.628Z" fill="#6C5CE7"/>
<path d="M571.13 404.279C570.091 404.472 569.053 404.664 568.005 404.877C554.054 407.54 540.343 411.333 527.006 416.219C525.969 416.58 524.923 416.962 523.899 417.352C491.893 429.465 462.413 447.42 436.956 470.303C426.835 479.417 417.421 489.29 408.796 499.834C396.886 514.397 385.13 531.135 369.566 540.63C367.954 541.639 366.28 542.547 364.555 543.349L274.897 506.132C274.736 505.945 274.565 505.778 274.403 505.59L270.755 504.268C271.162 503.693 271.596 503.106 272.003 502.531C272.238 502.196 272.492 501.87 272.727 501.536C272.89 501.315 273.054 501.095 273.188 500.887C273.242 500.814 273.297 500.741 273.342 500.687C273.476 500.479 273.623 500.3 273.749 500.112C276.168 496.822 278.614 493.542 281.087 490.274C281.096 490.253 281.096 490.254 281.124 490.241C300.033 465.387 321.182 441.895 345.221 422.361C345.944 421.774 346.675 421.166 347.44 420.595C358.324 411.851 369.905 404.011 382.066 397.155C388.737 393.422 395.592 390.029 402.606 386.99C420.743 379.172 439.997 374.258 459.66 372.428C498.86 368.785 538.787 377.729 568.851 402.374C569.62 403.005 570.37 403.627 571.13 404.279Z" fill="#F0F0F0"/>
<path d="M570.456 405.334C522.643 395.762 471.465 401.415 427.167 421.981C417.59 426.428 408.261 431.772 400.497 439.008C392.73 446.246 387.77 454.973 384.644 465.056C381.786 474.274 379.929 484.034 374.882 492.396C369.561 501.21 360.793 506.588 350.807 508.573C338.59 511.001 326.229 508.891 314.213 506.407C300.871 503.65 287.057 500.574 273.54 504.017C271.903 504.435 271.352 501.867 272.987 501.451C296.503 495.459 319.382 508.262 342.946 506.922C353.941 506.297 364.815 502.352 371.336 493.036C377.038 484.889 378.962 474.826 381.775 465.468C384.729 455.641 389.137 446.846 396.328 439.42C403.685 431.823 412.824 426.102 422.246 421.43C443.493 410.894 466.823 404.105 490.254 400.7C517.184 396.784 544.586 397.507 571.273 402.838C572.924 403.169 572.097 405.663 570.456 405.334V405.334Z" fill="#6C5CE7"/>
<path d="M441.214 414.536C438.801 406.543 439.306 397.952 442.639 390.296C445.972 382.641 451.915 376.421 459.407 372.746C460.926 372.008 462.143 374.335 460.623 375.074C453.64 378.483 448.104 384.278 445.015 391.413C441.926 398.547 441.488 406.552 443.779 413.982C444.275 415.597 441.707 416.142 441.214 414.536Z" fill="#6C5CE7"/>
<path d="M385.478 460.191C400.438 468.39 417.936 470.644 434.483 466.505C436.122 466.093 436.674 468.661 435.037 469.072C417.809 473.347 399.605 470.964 384.056 462.398C382.574 461.581 384.004 459.378 385.478 460.191V460.191Z" fill="#6C5CE7"/>
<path d="M516.275 400.145C516.565 403.432 517.666 406.596 519.479 409.353C521.293 412.109 523.762 414.372 526.665 415.937C528.156 416.736 526.724 418.937 525.243 418.144C522.043 416.4 519.319 413.898 517.309 410.857C515.299 407.815 514.063 404.328 513.71 400.699C513.649 400.36 513.718 400.009 513.905 399.72C514.092 399.43 514.382 399.222 514.716 399.138C515.056 399.067 515.41 399.132 515.702 399.321C515.994 399.509 516.2 399.805 516.275 400.145V400.145Z" fill="#6C5CE7"/>
<path d="M400.337 465.68C387.781 404.922 372.086 384.665 372.086 384.665L366.089 380.011L358.879 374.406L358.914 373.685L357.203 373.103L356.802 372.791L356.143 372.285L356.037 372.399L355.814 372.631L323.184 361.531L281.788 347.459L262.619 322.524C259.497 318.463 255.478 315.181 250.876 312.934C246.275 310.688 241.216 309.539 236.096 309.577L174.876 310.03C166.599 310.091 158.643 313.249 152.574 318.883L112.336 356.236L49.6358 386.204L49.53 386.098L48.8716 386.569L39.1839 391.205L39.5837 393.287L33.5876 397.617C33.5876 397.617 17.8921 416.466 5.33569 473.001C2.14148 487.386 0.569175 518.245 0.00165588 556.27C-0.0268505 558.194 0.327044 560.104 1.04275 561.889C1.75846 563.675 2.82171 565.3 4.17067 566.671C5.51964 568.041 7.1274 569.13 8.90049 569.873C10.6736 570.616 12.5766 570.999 14.4989 571H349.39V571H391.189C393.11 570.999 395.012 570.616 396.784 569.874C398.556 569.131 400.163 568.044 401.511 566.675C402.86 565.306 403.924 563.683 404.641 561.899C405.357 560.116 405.713 558.208 405.687 556.285C405.132 514.908 403.561 481.281 400.337 465.68Z" fill="#332B69"/>
<path d="M443.305 52.9866C430.276 52.9866 417.781 58.1664 408.567 67.3866C399.354 76.6067 394.179 89.1119 394.179 102.151C394.179 115.19 399.354 127.696 408.567 136.916C417.781 146.136 430.276 151.316 443.305 151.316H809.417C822.447 151.316 834.942 146.136 844.155 136.916C853.368 127.696 858.544 115.19 858.544 102.151C858.544 89.1119 853.368 76.6067 844.155 67.3866C834.942 58.1664 822.447 52.9866 809.417 52.9866H443.305Z" fill="#E5E5E5"/>
<path d="M443.305 62.9366C432.913 62.9366 422.946 67.0681 415.598 74.4223C408.249 81.7764 404.121 91.7508 404.121 102.151C404.121 112.552 408.249 122.526 415.598 129.88C422.946 137.234 432.913 141.366 443.305 141.366H809.417C819.81 141.366 829.776 137.234 837.125 129.88C844.473 122.526 848.602 112.552 848.602 102.151C848.602 91.7508 844.473 81.7764 837.125 74.4223C829.776 67.0681 819.81 62.9366 809.417 62.9366H443.305Z" fill="white"/>
<path d="M215.1 286.56C259.395 286.56 295.304 250.624 295.304 206.295C295.304 161.966 259.395 126.03 215.1 126.03C170.805 126.03 134.896 161.966 134.896 206.295C134.896 250.624 170.805 286.56 215.1 286.56Z" fill="#ECC1C7"/>
<path d="M194.582 282.63C194.24 281.875 193.898 281.117 193.557 280.357C193.689 280.362 193.819 280.38 193.95 280.384L194.582 282.63Z" fill="#2F2E41"/>
<path d="M132.666 129.68C136.722 126.441 141.463 123.462 146.65 123.629C151.836 123.796 157.095 128.484 156.021 133.565C165.547 116.685 180.71 103.702 198.848 96.8955C216.986 90.0891 236.94 89.8937 255.208 96.3436C268.098 100.895 280.738 110 283.7 123.355C284.46 126.783 284.623 130.542 286.762 133.325C289.458 136.835 294.618 137.629 298.867 136.394C298.909 136.382 298.951 136.37 298.994 136.357C299.712 136.112 300.486 136.088 301.218 136.288C301.949 136.488 302.604 136.903 303.097 137.48C303.591 138.056 303.899 138.768 303.984 139.522C304.069 140.276 303.926 141.039 303.573 141.71L299.925 148.518C304.523 149.543 309.3 149.442 313.85 148.221C314.606 148.023 315.405 148.064 316.136 148.337C316.868 148.611 317.498 149.105 317.938 149.751C318.379 150.397 318.609 151.163 318.596 151.945C318.584 152.727 318.331 153.486 317.871 154.118C305.844 170.642 285.752 181.313 265.249 181.187C250.676 181.098 235.953 176.072 221.771 179.426C216.284 180.723 211.157 183.233 206.767 186.772C202.376 190.311 198.833 194.789 196.397 199.877C193.961 204.966 192.694 210.535 192.689 216.177C192.684 221.819 193.942 227.391 196.37 232.483C192.013 227.714 183.59 228.843 179.133 233.519C174.677 238.195 173.523 245.174 173.972 251.621C174.659 261.48 178.519 270.771 182.588 279.813C148.47 278.738 116.201 254.787 105.339 222.392C94.4309 189.861 105.862 151.078 132.666 129.68Z" fill="#2F2E41"/>
<path opacity="0.2" d="M78.9413 447.337L101.437 569.824L114.934 571L78.9413 447.337Z" fill="black"/>
<path opacity="0.2" d="M326.732 438.099L304.237 569.735L290.739 571L326.732 438.099Z" fill="black"/>
<path d="M151.853 88.457C147.539 90.2595 143.039 88.2841 141.151 83.7605C139.235 79.1677 141.025 74.5054 145.407 72.6741C149.79 70.8426 154.21 72.8228 156.158 77.4896C158.076 82.0865 156.305 86.5964 151.853 88.457ZM143.59 63.634L140.161 65.0671C139.304 65.4208 138.346 65.4399 137.476 65.1205C136.606 64.8011 135.887 64.1666 135.462 63.3423L135.293 63.0103C131.602 56.3503 131.18 48.256 134.043 38.965C136.696 30.6304 137.798 24.7687 135.582 19.4584C133.02 13.3186 127.55 11.3953 120.574 14.1814C117.868 15.3121 117.007 15.2941 114.878 17.4078C114.415 17.8732 113.863 18.2405 113.255 18.4878C112.647 18.7351 111.995 18.8573 111.339 18.8471C110.705 18.8396 110.078 18.7044 109.497 18.4494C108.916 18.1945 108.392 17.825 107.957 17.3631C107.119 16.4729 106.649 15.2974 106.643 14.074C106.636 12.8506 107.094 11.6704 107.924 10.7718C111.503 7.0226 115.819 4.05653 120.601 2.06073C135.589 -4.20266 143.134 5.04433 146.587 13.3195C149.964 21.4136 148.065 28.9236 145.012 38.6497C142.454 46.7316 142.603 52.7201 145.509 58.6745C145.719 59.1247 145.836 59.6127 145.852 60.1091C145.869 60.6055 145.785 61.1002 145.606 61.5634C145.427 62.0266 145.156 62.4488 144.809 62.8046C144.463 63.1604 144.048 63.4425 143.59 63.6339L143.59 63.634Z" fill="white"/>
<path d="M524.175 125.599H451.332C451.101 125.601 450.871 125.557 450.657 125.469C450.443 125.382 450.248 125.252 450.084 125.089C449.92 124.926 449.789 124.732 449.7 124.518C449.611 124.304 449.566 124.075 449.566 123.843C449.566 123.612 449.611 123.382 449.7 123.169C449.789 122.955 449.92 122.761 450.084 122.598C450.248 122.434 450.443 122.305 450.657 122.218C450.871 122.13 451.101 122.086 451.332 122.088H524.175C524.638 122.091 525.081 122.277 525.408 122.606C525.734 122.935 525.917 123.38 525.917 123.843C525.917 124.307 525.734 124.752 525.408 125.081C525.081 125.41 524.638 125.596 524.175 125.599Z" fill="#6C63FF"/>
<path d="M616.58 126.184H543.737C543.506 126.186 543.277 126.142 543.062 126.054C542.848 125.967 542.653 125.838 542.489 125.674C542.325 125.511 542.195 125.317 542.106 125.103C542.017 124.89 541.971 124.66 541.971 124.429C541.971 124.197 542.017 123.968 542.106 123.754C542.195 123.54 542.325 123.346 542.489 123.183C542.653 123.02 542.848 122.89 543.062 122.803C543.277 122.715 543.506 122.671 543.737 122.673H616.58C616.811 122.671 617.041 122.715 617.255 122.803C617.469 122.89 617.664 123.02 617.828 123.183C617.993 123.346 618.123 123.54 618.212 123.754C618.301 123.968 618.347 124.197 618.347 124.429C618.347 124.66 618.301 124.89 618.212 125.103C618.123 125.317 617.993 125.511 617.828 125.674C617.664 125.838 617.469 125.967 617.255 126.054C617.041 126.142 616.811 126.186 616.58 126.184Z" fill="#6C63FF"/>
<path d="M708.985 126.77H636.143C635.679 126.767 635.236 126.58 634.91 126.251C634.583 125.922 634.4 125.478 634.4 125.014C634.4 124.55 634.583 124.105 634.91 123.777C635.236 123.448 635.679 123.261 636.143 123.258H708.985C709.217 123.256 709.446 123.301 709.66 123.388C709.875 123.476 710.069 123.605 710.234 123.768C710.398 123.931 710.528 124.125 710.617 124.339C710.706 124.553 710.752 124.782 710.752 125.014C710.752 125.246 710.706 125.475 710.617 125.689C710.528 125.902 710.398 126.097 710.234 126.26C710.069 126.423 709.875 126.552 709.66 126.64C709.446 126.727 709.217 126.771 708.985 126.77H708.985Z" fill="#6C63FF"/>
<path d="M801.39 127.355H728.548C728.085 127.352 727.641 127.166 727.315 126.837C726.988 126.508 726.805 126.063 726.805 125.599C726.805 125.136 726.988 124.691 727.315 124.362C727.641 124.033 728.085 123.847 728.548 123.843H801.39C801.854 123.847 802.297 124.033 802.623 124.362C802.95 124.691 803.133 125.136 803.133 125.599C803.133 126.063 802.95 126.508 802.623 126.837C802.297 127.166 801.854 127.352 801.39 127.355Z" fill="#6C63FF"/>
<path d="M487.593 109.44C495.07 109.44 501.132 103.374 501.132 95.891C501.132 88.4082 495.07 82.3422 487.593 82.3422C480.116 82.3422 474.055 88.4082 474.055 95.891C474.055 103.374 480.116 109.44 487.593 109.44Z" fill="#6C63FF"/>
<path d="M580.557 109.44C588.034 109.44 594.095 103.374 594.095 95.891C594.095 88.4082 588.034 82.3422 580.557 82.3422C573.08 82.3422 567.018 88.4082 567.018 95.891C567.018 103.374 573.08 109.44 580.557 109.44Z" fill="#6C63FF"/>
<path d="M673.52 109.44C680.997 109.44 687.058 103.374 687.058 95.891C687.058 88.4082 680.997 82.3422 673.52 82.3422C666.043 82.3422 659.981 88.4082 659.981 95.891C659.981 103.374 666.043 109.44 673.52 109.44Z" fill="#6C63FF"/>
<path d="M766.483 109.44C773.96 109.44 780.022 103.374 780.022 95.891C780.022 88.4082 773.96 82.3422 766.483 82.3422C759.006 82.3422 752.945 88.4082 752.945 95.891C752.945 103.374 759.006 109.44 766.483 109.44Z" fill="#6C63FF"/>
</g>
<defs>
<clipPath id="clip0_82_190">
<rect width="858.544" height="571" fill="white"/>
</clipPath>
</defs>
</svg>
